<?xml version="1.0"?>
<svg xmlns="http://www.w3.org/2000/svg" id="Icons" viewBox="0 0 74 74" width="512" height="512"><path d="M53.5,71.01H4a1,1,0,0,1-1-1V53.95a1,1,0,0,1,1.638-.771A9.083,9.083,0,1,0,10.42,37.09a8.986,8.986,0,0,0-5.777,2.066A1,1,0,0,1,3,38.391V20.51a1,1,0,0,1,1-1H20a10.915,10.915,0,0,1-1.417-5.42,11.09,11.09,0,1,1,22.18,0,10.936,10.936,0,0,1-1.425,5.42H53.5a1,1,0,0,1,1,1V34.667A11.076,11.076,0,1,1,54.5,54V70.01A1,1,0,0,1,53.5,71.01ZM5,69.01H52.5v-16.9a1,1,0,0,1,1.638-.771,9.09,9.09,0,1,0,.005-14A1,1,0,0,1,52.5,36.57V21.51H37.44a1,1,0,0,1-.774-1.633A9.088,9.088,0,1,0,20.58,14.09a8.953,8.953,0,0,0,2.089,5.781,1,1,0,0,1-.77,1.639H5V36.491a11.084,11.084,0,1,1,0,19.35Z"/></svg>
